<svg version="1.0" xmlns="http://www.w3.org/2000/svg" width="100%" height="100%" viewBox="0 0 70 70"
     preserveAspectRatio="xMidYMid meet" color-interpolation-filters="sRGB" style="margin: auto;">
    <g  fill="#ef9a0d" class="iconlettersvg-g iconlettersvg" transform="translate(0,10)">
        <g>
            <g class="tp-name">
                <g transform="scale(1)">
                    <g transform="translate(2.5, 0)">
                        <g class="name-imagesvg">
                            <g>
                                <svg x="0" y="0" width="30" height="50" filtersec="colorsb2649635871" class="image-svg-svg primary" style="overflow: visible;">
                                    <svg xmlns="http://www.w3.org/2000/svg" viewBox="0 0 57.54 97.4">
                                        <path d="M47.57 46.3c-3.84-3-8.1-5.33-12.27-7.85-2.32-1.4-4.57-2.9-6.82-4.4a17.1 17.1 0 0 1-4.75-4.29c-2.5-4.07-2.42-8 .18-11.87 4.4.55 8.48 3.59 9.1 7.05a1.92 1.92 0 0 0 2 1.62 3.09 3.09 0 0 0 .6-.08c3.36 1.15 7.59-5.32 8.87-7.14.14-.21.26-.41.39-.62a26.66 26.66 0 0 1-5.24 3.79 10 10 0 0 0 .84-2.12c.93-.86 1.86-1.72 2.85-2.5s2-1.38 2.93-2.11a11.73 11.73 0 0 1-1.38 2.94 6.77 6.77 0 0 0 1.91-3.34c.07-.06.15-.1.21-.16s.38-.6 0-.65h-.07a5.32 5.32 0 0 0-.26-1.89 9.1 9.1 0 0 1-.14 1.93 6.41 6.41 0 0 0-2.91 1.76c-1 .83-1.93 1.7-2.84 2.6a9.8 9.8 0 0 0 0-2.23c1.88-1.5 3.74-3 5.76-4.34 0 .09.09.19.12.28a2.25 2.25 0 0 0-.06-.36c.16-.16.13-.43-.07-.47-.55-3.46-3.27-6.41-7-8.64C25.5-5 10.71 3.71 4.17 16.42c-5.79 8.52-5.59 18.89.84 27.8 3.7 5.14 9.84 8.87 15.27 12.16 1.72 1 3.4 2.06 4.81 3l6.09 5.57a11.78 11.78 0 0 1 2.76 6c-3.17 5.05-10.55 6.66-14.79 2.44a11.58 11.58 0 0 0-3.73-2.87 9.27 9.27 0 0 0-7.42.36c-1.63 1-6.05 4.5-5.68 7.12a11.75 11.75 0 0 0 .1 10.3 16.8 16.8 0 0 0 11.72 8.5 29.68 29.68 0 0 0 5.9.6 28.91 28.91 0 0 0 12.16-2.76c13.48-2.35 25.71-14 25.33-28.17-.18-7.01-4.45-15.81-9.96-20.17zM56 68.37a33.51 33.51 0 0 0-7.15 6.4c.12-.73.25-1.46.3-2.2.48-.48.92-1 1.22-1.32.65-.67 1.27-1.35 1.91-2a39.89 39.89 0 0 0 3.47-3.41c.14.82.25 1.67.25 2.53zm-.35-3.06h-.07c-1.72.87-3.16 2.66-4.42 4.1l-1.59 1.79-.37.45V69.2c1-.89 1.95-1.8 2.94-2.68s2.21-1.75 3.3-2.63c.06.46.14.94.22 1.42zM55.19 63c-2.34 1.18-4.35 3.47-6.07 5.48-.07-.76-.17-1.52-.3-2.29 2-1.69 3.71-3.78 5.79-5.46.24.76.39 1.54.58 2.27zm-.88-3.09c-2.26 1.42-3.74 3.86-5.61 5.76-.12-.6-.23-1.19-.38-1.79 1.88-1.7 3.67-3.48 5.55-5.2.13.43.29.85.44 1.26zm-.69-1.74a31.13 31.13 0 0 0-5.38 5.44 29.71 29.71 0 0 0-1.07-3.18 42.33 42.33 0 0 1 5.25-4.77c.45.84.83 1.69 1.2 2.54zM52.05 55A21.42 21.42 0 0 0 47 59.94c-.31-.72-.59-1.46-1-2.18 1.53-1.6 3.58-2.7 5.25-4.16.3.46.53.95.8 1.4zm-2.7-4c.55.68 1.07 1.38 1.55 2.09-1.31.92-2.63 1.83-3.87 2.84a13.86 13.86 0 0 0-1.4 1.22c-.36-.67-.68-1.35-1.09-2 1.56-1.43 3.16-2.79 4.8-4.14zm-.5-.59a27 27 0 0 0-4.66 4.16 16.44 16.44 0 0 0-1.08-1.41c1.74-1.09 3.34-2.42 5-3.65.24.24.48.55.74.85zM47.58 49a46.46 46.46 0 0 0-4.78 3.76q-.8-.92-1.65-1.76c1.6-1.24 3.15-2.5 4.85-3.62.55.51 1.06 1.04 1.58 1.62zm-3-2.8c.28.22.53.47.79.71a21.74 21.74 0 0 0-4.68 3.74c-.33-.31-.64-.64-1-.94a17 17 0 0 1 4.69-3.3.39.39 0 0 0 .24-.25zm-.45-.33a9.75 9.75 0 0 0-4.82 3.52c-.55-.46-1.12-.91-1.7-1.34 1.53-1.19 3-2.42 4.46-3.72.76.44 1.43.97 2.1 1.5zm-4-2.78l.71.42c.22.14.42.3.63.43a37.18 37.18 0 0 0-4.4 3.74c-.34-.24-.66-.5-1-.73a46.56 46.56 0 0 0 4-3.4.32.32 0 0 0 .13-.5zm-3-1.78L40.09 43a.26.26 0 0 0-.2 0c-1.59 1-2.81 2.44-4.31 3.51-.88-.6-1.78-1.18-2.66-1.73 1.43-1.13 2.75-2.43 4.23-3.5.02.02.02 0 .04-.01zM32 38c1.59 1.06 3.2 2 4.72 3a22.14 22.14 0 0 0-4.37 3.48l-1.52-.92a29 29 0 0 1 3.67-2.75c.28-.16.36-.73-.08-.58-1.66.57-2.82 1.86-4.07 3-.84-.51-1.65-1-2.44-1.51 1.27-1.15 2.64-2.18 3.93-3.33A.41.41 0 0 0 32 38zm-4.5-3.31a51.69 51.69 0 0 0 4.17 3.09.46.46 0 0 0-.24.08 20.47 20.47 0 0 0-4.09 3.51c-.49-.33-1-.69-1.44-1 1.12-.91 2.25-1.82 3.34-2.77.39-.34 0-.82-.38-.48-1.14 1-2.24 2-3.35 3-.64-.46-1.3-.9-1.93-1.37 1.3-1.15 2.44-2.47 3.72-3.65a.64.64 0 0 0 .19-.39zm-.4-.34a.48.48 0 0 0-.27.09 30.64 30.64 0 0 0-3.75 3.89c-.35-.27-.73-.5-1.07-.77 1.32-1.27 2.61-2.59 3.91-3.87a.25.25 0 0 0 0-.34c.39.36.78.65 1.17 1.02zm-1.18-1a.28.28 0 0 0-.34 0 15.13 15.13 0 0 0-4 3.94c-.38-.31-.8-.6-1.16-.91 1.3-1.19 2.58-2.38 3.83-3.58.37-.34.05-.72-.35-.45A18.29 18.29 0 0 0 20.08 36 23.74 23.74 0 0 1 18 34a28 28 0 0 1 4.58-4.52 20.48 20.48 0 0 0 3.33 3.86zm-3.67-4.5c-2 .79-3.31 2.92-4.6 4.66a17.37 17.37 0 0 1-1.41-2 45.16 45.16 0 0 1 5-5.07 10.7 10.7 0 0 0 1 2.4zm-1.06-6.93a.41.41 0 0 0-.26.11 48.26 48.26 0 0 0-5.3 5c-.41.46.26.75.61.36 1.51-1.66 3.19-3.15 4.81-4.7a8.21 8.21 0 0 0 0 3.24h-.07a20 20 0 0 0-5 5.21A10.16 10.16 0 0 1 14.63 26a.29.29 0 0 0 .12-.07 55.75 55.75 0 0 1 6.71-5.87c.22-.18.2-.65-.17-.51-2.67 1-4.88 3.44-6.62 5.69a9.39 9.39 0 0 1 1-3.54c.56-.45 1.16-.84 1.58-1.14 1.06-.78 2.2-1.47 3.23-2.29a.36.36 0 0 0 .15-.34 10.33 10.33 0 0 1 1.89-.18c.3 0 .6 0 .89.07a11.69 11.69 0 0 0-2.23 4.09zm21-14.79c.32.27.66.53 1 .83a12.83 12.83 0 0 1 3.07 3.94c-2.2.8-3.93 2.54-5.65 4.15a8.58 8.58 0 0 0-.59-1.7C41.49 13 43.2 12 44.77 10.79c.17-.13.25-.54-.09-.5-1.86.19-3.67 2-4.92 3.48a12.91 12.91 0 0 0-2.18-2.95C39 9.75 40.41 8.6 41.94 7.65a.61.61 0 0 0 .29-.53zm-2.53-1.9a24.34 24.34 0 0 1 2.28 1.64.33.33 0 0 0-.23 0 26.25 26.25 0 0 0-4.54 3.47 15.83 15.83 0 0 0-2-1.61 39.16 39.16 0 0 1 4.49-3.5zm-1.26-.79c.21.12.41.27.62.39a17.71 17.71 0 0 0-4.42 3.54A24.21 24.21 0 0 0 32.13 7 46.69 46.69 0 0 1 37 3.78c.44.22.92.41 1.4.66zm-2.23-1a17.46 17.46 0 0 0-4.51 3.3l-.35-.17a21.77 21.77 0 0 0-3.23-1.12c1.49-1.09 3-2.18 4.51-3.25a24.92 24.92 0 0 1 3.58 1.21zM30 1.69c.43 0 .85.13 1.27.2a17.53 17.53 0 0 0-4.07 3.37c-.69-.15-1.39-.3-2.07-.38.23-.17.49-.32.71-.5A46 46 0 0 1 30 1.69zm-1.88-.08A25.13 25.13 0 0 0 24 4.79a17.18 17.18 0 0 0-2 0c1.52-1.07 3.08-2.11 4.62-3.2.48-.03.97.02 1.47.02zm-6.24 1c.51-.16 1-.37 1.5-.51s1-.2 1.47-.29a24.7 24.7 0 0 0-4.21 3.08 17.68 17.68 0 0 0-3.14.75c.46-.45.88-.85 1-.9a20.8 20.8 0 0 1 3.35-2.13zM18 4.05l-.5.39a9.46 9.46 0 0 0-1.75 1.89 25.38 25.38 0 0 0-7 4.83A26 26 0 0 1 18 4.05zm7.49 73.05a9.84 9.84 0 0 0-1.55 2c-.19.36.29.4.48.19.79-.88 1.69-1.64 2.54-2.44a15.19 15.19 0 0 0 1.74-.42 11.18 11.18 0 0 0-1.6 2.24 9.21 9.21 0 0 1-1.87.72 16.25 16.25 0 0 1-3.78.42c-.64 0-1.27-.07-1.89-.13a21 21 0 0 1 2.54-2.63 16.72 16.72 0 0 0 3.39.05zm-6-.84a5.65 5.65 0 0 0 1.41.6 13.32 13.32 0 0 0-2.25 2.75 19 19 0 0 1-2.1-.43 14.27 14.27 0 0 1 2.95-2.92zm-.76-.61l.1.09A8.86 8.86 0 0 0 16.06 79a12 12 0 0 1-2-.78l-.06-.04a15.84 15.84 0 0 1 3.47-3.74zm-1.93-1.89a10.76 10.76 0 0 0-3.23 3.79c-.35-.48-.7-1-1.07-1.47l-.5-.68a3.76 3.76 0 0 0-.29-.28c1.11-.91 2.2-1.86 3.33-2.74a10 10 0 0 1 1.77 1.38zm-4.17-2.21a5.54 5.54 0 0 1 1.79.45 14 14 0 0 0-3.27 2.57 3.82 3.82 0 0 0-1.56-.74c.83-.63 2.14-1.6 3.05-2.28zm-1.53 0c-.5.39-1 .8-1.42 1.22a7.26 7.26 0 0 0-.89.93h-.05a6.77 6.77 0 0 0-3.3 1 19.6 19.6 0 0 1 5.67-3.1zM26.83 94a26.65 26.65 0 0 1-12.16.4 14.41 14.41 0 0 1-10.13-7.15 9.32 9.32 0 0 1 0-8.48 5.61 5.61 0 0 1 4.2-2.64 1.53 1.53 0 0 1 1.34.65l.49.69c.62.87 1.21 1.68 1.8 2.46a1.39 1.39 0 0 0 .37.31 18.61 18.61 0 0 0 8.71 2 19 19 0 0 0 4.35-.48 12.69 12.69 0 0 0 3.14-1.34c1.95-1.6 4.23-3.22 5.51-5.36a10.42 10.42 0 0 0 1.1-7.36 18.87 18.87 0 0 0-2.62-4.36l-6.38-5.83c-1.57-1.05-3.28-2.09-5-3.15C16 51 10.36 47.57 6.94 42.83c-6.47-9-6-19.59 1.18-27.69 7-7.93 14.19-10 22.23-6.42 4.42 2 7.32 4.84 8 7.87.5 2.37-.36 4.8-2.56 7.22a1.41 1.41 0 0 1-.48.28c-1.22-5.22-7.48-8.7-12.75-8.7a9.73 9.73 0 0 0-9.95 7.9c-2.36 10 8 16.6 13.52 20.13 1 .63 2 1.26 3.11 1.92C34 48.25 39.44 51.55 42.32 56c4.63 7.15 7.49 18.64.26 27.49A30.82 30.82 0 0 1 26.83 94zm10.24-2.22A36.33 36.33 0 0 0 42 87.55c1-.65 2-1.2 3-1.85 2.27-1.57 4.78-2.76 7-4.4-3.62 4.8-9.11 8.4-14.93 10.52zm15.21-11c0-.24-.18-.43-.5-.26a84.38 84.38 0 0 0-7.27 4.57l-.63.41c.17-.2.37-.37.54-.58a17.3 17.3 0 0 0 1-1.42c.84-.63 1.64-1.32 2.45-1.88 2.21-1.51 4.46-3 6.61-4.65a21.91 21.91 0 0 1-2.2 3.86zm2.72-5c-2.06.7-3.82 2.39-5.53 3.68-1 .74-2 1.49-2.94 2.23.25-.46.53-.92.74-1.41q1.66-1.61 3.35-3.19c1.72-1.62 3.88-3 5.26-4.89a.24.24 0 0 0 0-.09 17.76 17.76 0 0 1-.88 3.7zm.94-3.78c-.06-.14-.23-.19-.43-.06a46.38 46.38 0 0 0-7.71 7 22 22 0 0 0 .91-3.1c2.36-2.4 5-4.4 7.38-6.8a19.69 19.69 0 0 1-.15 2.96z"
                                              fill="#f89700"></path>
                                    </svg>
                                </svg> <!---->
                            </g>
                        </g>
                    </g>
                    <g transform="translate(30, 0)">
                        <g class="name-imagesvg">
                            <g>
                                <svg x="0" y="0" width="40" height="50" filtersec="colorsb6138306302" class="image-svg-svg primary" style="overflow: visible;">
                                    <svg xmlns="http://www.w3.org/2000/svg" viewBox="0 0 67.14 91.22">
                                        <path d="M66.75 6.74C63.27-1 53.47.15 46.33.18h-4.1c0-.06-.07-.1-.2-.08s-.21.06-.32.08h-3.65a.22.22 0 0 0-.28-.18 1.72 1.72 0 0 0-.21.07A137.29 137.29 0 0 0 20.81 1a.25.25 0 0 0-.21 0h-.13C10.47 2.31 1.41 5.37.82 12.37a7.21 7.21 0 0 0-.74 2.15 7.24 7.24 0 0 0 2.65 6.68c1.32 1.13 3.4 1.69 6.34 1.69a51.26 51.26 0 0 0 9.32-1.17l.83-.16c2.17-.41 4.52-.75 7.31-1.06-.14 5.67-.06 11.75.23 18.94-.38 16 .5 35.23.92 44.49.09 1.85.15 3.25.18 3.95a3.19 3.19 0 0 0 .76 2.48 2.94 2.94 0 0 0 2.2.86 5.69 5.69 0 0 0 1.86-.39c9.9.62 14.38-7.58 13.19-17.09a226.61 226.61 0 0 1-1.54-26.81c0-.72 0-1.45-.08-2.18l.22-.19c.16-.17.05-.42-.2-.36q-.12-3.12-.34-6.31a.2.2 0 0 0 0-.07c-.19-2.64-.39-5.31-.52-8l.19-.15a.23.23 0 0 0-.2-.4c-.07-1.39-.13-2.78-.14-4.15.12-.11.24-.21.35-.33s0-.48-.22-.4h-.12c0-1.55.05-3.09.2-4.61 5 0 10.71-.31 15.25-2.59a5.77 5.77 0 0 0 1.55-1.14C64 14 68.5 10.63 66.75 6.74zm-2.06.73a10.16 10.16 0 0 0-2.38 2A3.57 3.57 0 0 0 61.85 8l.55-.41a11.09 11.09 0 0 1 1.85-1.19 5.87 5.87 0 0 1 .44 1.07zm-2.16-3a15.81 15.81 0 0 0-3.25 2 6.92 6.92 0 0 0-1.09-.11h-1.31l1.35-.94c1-.67 2-1.26 3-1.91a8.85 8.85 0 0 1 1.3.92zm-4.31-2a11.07 11.07 0 0 1 2.22.72 28.27 28.27 0 0 0-4.64 3.23l-3.33.09c1.93-1.14 3.69-2.62 5.58-3.83a.42.42 0 0 0 .17-.27zm-.55-.1c-2.21 1.17-4 3-6.17 4.23l-3.8.11c2.5-1.41 4.6-3.4 7.13-4.71.95.07 1.9.17 2.84.31zM52 1.82c.38 0 .76.05 1.14.07C51 3.31 49 5.41 46.72 6.68l-3 .1c2.86-1.54 5.4-3.56 8.28-4.96zm-3.9-.09h2c-2.57 1.3-4.76 3.51-7.2 5l-2.33.07c2.66-1.36 4.9-3.75 7.51-5.1.03.07.04.04.06.03zm-1.67 0C43.9 3 42 5.55 39.41 6.92L36.13 7a74.53 74.53 0 0 1 8.17-5.2c.7-.03 1.44-.04 2.17-.05zm-6.9.27h1l1.81-.07a75 75 0 0 0-6.94 5.13l-4 .16c1.33-.81 2.6-1.68 3.88-2.62A37.32 37.32 0 0 1 39.53 2zm-2.05 0C35.16 3.56 33 5.69 30.93 7.24h-3.68c2.91-1.51 5.56-3.5 8.32-5.28zm-3.83 0c-2.47 1.67-4.71 3.82-7.27 5.25l-2.78-.08A43.61 43.61 0 0 0 32 2zm-3.33 0c-.83.54-1.63 1.13-2.43 1.7-1.13.8-2.27 1.59-3.45 2.31-.41.24-.82.47-1.24.68a5.57 5.57 0 0 0-.5.39h-.11c.12-.17-.08-.33-.23-.19l-.19.17c-1 0-2.05-.08-3.05-.09q1.74-1.12 3.45-2.31c1.33-.88 2.72-1.66 4.11-2.5 1.23-.04 2.45-.08 3.64-.1zm-5.69.21A78.94 78.94 0 0 0 18.3 7h-.63a1 1 0 0 0-.35 0h-.95c1-.71 1.95-1.44 2.93-2.17a28.83 28.83 0 0 1 3.94-2.45zm-3.47.26l-.62.41c-1.17.8-2.24 1.74-3.34 2.62l-1.63 1.3-.22.2c-1 .06-2 .15-2.91.25a25 25 0 0 0 2.5-1.59c1.35-1 2.73-1.95 4.1-2.93.7-.07 1.41-.13 2.12-.2zm-4.46.59a45.72 45.72 0 0 1-5.86 4.37l-1 .13c2-1.32 3.86-2.91 5.76-4.32.4-.01.74-.05 1.1-.12zm-2.57.5c-2 1.34-3.77 2.92-5.74 4.26-.89.19-1.74.4-2.54.65 2-1.53 4-2.92 6.08-4.34.7-.13 1.44-.34 2.2-.51zM9 5.26a29.2 29.2 0 0 0-4.43 3.66.71.71 0 0 0-.24.13A7.67 7.67 0 0 0 3 9.82a13 13 0 0 1 6-4.56zm33.42 80.53a7.6 7.6 0 0 1-3.52 2.69 6.22 6.22 0 0 0 .76-.78 4.83 4.83 0 0 0 .37-.62c1.41-1.71 2.76-3.47 4.17-5.19a11.16 11.16 0 0 1-1.78 3.9zm-2-22.36c0-.58 0-1.16-.05-1.75.83-1.15 1.63-2.31 2.47-3.45 0 .61.07 1.21.09 1.82a20 20 0 0 0-2.48 3.38zM43 61.17c0 .57.07 1.14.1 1.71-1 1.12-1.69 2.42-2.56 3.62 0-.37-.05-.73-.06-1.06s0-.73 0-1.1A29.62 29.62 0 0 0 43 61.17zm-2.64-.32c0-1.46-.07-2.91-.11-4.37a37.43 37.43 0 0 1 2.53-3.09c0 1.35 0 2.68.06 4a18.35 18.35 0 0 0-2.46 3.46zm-.14-5.29c0-.78 0-1.57-.06-2.34.82-1 1.61-2.07 2.49-3.06a.3.3 0 0 0 .09-.23v2.49a11.28 11.28 0 0 0-2.5 3.14zm2-5.77a17.61 17.61 0 0 0-2.08 2.52c0-1 0-2.07-.08-3.1a23.55 23.55 0 0 1 1.64-2.12 8.23 8.23 0 0 1 1-1v3.79c.05-.17-.24-.29-.46-.09zm-.81-3.38A14.79 14.79 0 0 0 40 48.25c0-1 0-1.93-.08-2.88a12.56 12.56 0 0 1 2.73-2.86v2.57c-.4.42-.83.92-1.22 1.33zm-1.51-2V42.59a37.91 37.91 0 0 1 2.78-3.3v2.46a8.34 8.34 0 0 0-2.76 2.68zm2.7-24.34a.24.24 0 0 0-.2-.05c-1.26.3-2 1.67-2.89 2.57-.09-.94-.2-1.87-.38-2.79h3.51a2.23 2.23 0 0 0-.02.29zm-2.25 2.45a10.49 10.49 0 0 0 2.14-2c-.11.56-.13 1.13-.2 1.68a13.19 13.19 0 0 0-2.05 1.8l-.62.6v-1.39c.24-.21.51-.48.75-.67zm-.71 6a12.13 12.13 0 0 0 1-.92c.49-.51 1-1 1.54-1.46 0 1.17.13 2.36.21 3.55a10.94 10.94 0 0 0-1.87 1.59c-.25.25-.56.54-.86.85v-1.49c.02-.64 0-1.37 0-2.08zm0-.82v-2.24c.45-.42.92-.82 1.4-1.21s.76-.56 1.12-.88v1.64a16.15 16.15 0 0 0-2.5 2.73zm0 5.38c.43-.47.86-.93 1.35-1.37S42 31 42.44 30.63c0 .64.09 1.29.11 1.93a9.43 9.43 0 0 0-2.9 2.78c-.01-.73 0-1.48.01-2.22zm1 2.26a24.67 24.67 0 0 1 1.94-1.89v1.85a10.56 10.56 0 0 0-2.83 3l-.07-1.8c.32-.36.64-.74.96-1.12zm2 .68v2.34a16.22 16.22 0 0 0-2.81 3.2l-.08-2.55c.98-.93 1.91-1.96 2.87-2.95zM44.39 81a26 26 0 0 0-3.33 3.92 13.46 13.46 0 0 0 .46-1.6c.41-.51.81-1 1.19-1.59.62-.93 1.32-1.86 1.89-2.84a13.59 13.59 0 0 1-.21 2.11zm-.06-6.2c.13 1 .23 2 .26 3a23.55 23.55 0 0 0-2.91 4.13 24 24 0 0 0 .12-3.52 20.94 20.94 0 0 0 2.53-3.65zm-.4-2.86c.08.53.15 1.07.23 1.61-.9 1.32-1.56 2.77-2.39 4.13-.06-.93-.14-1.86-.24-2.8a37.94 37.94 0 0 0 2.4-2.98zm-.12-1a16.58 16.58 0 0 0-2.36 3.22c-.07-.61-.14-1.22-.22-1.82.78-1 1.61-2 2.4-3zm-.26-2.33a16.78 16.78 0 0 0-2.41 3l-.06-.46c-.19-1.41-.37-2.76-.47-4a37.1 37.1 0 0 0 2.57-3.28c.1 1.54.22 3.13.37 4.66zm16.27-56.96a1.08 1.08 0 0 0-.1.56 3.37 3.37 0 0 1-2 3.21c-4.16 2.08-9.59 2.36-14.36 2.36h-5.59a1.06 1.06 0 0 0-.83.4 1 1 0 0 0-.19.9c.92 3.66.83 7.71.75 11.63 0 1.8-.08 3.58 0 5.32l.27 8.13c.22 7 .47 14.25.59 21.38a53.66 53.66 0 0 0 .64 5.85c.7 5.25 1.57 11.8-1 15A5.25 5.25 0 0 1 35.88 88c0-.19 0-.36-.31-.32a8.68 8.68 0 0 0-2.42.83 1 1 0 0 0-.49.13c-.91.47-2 .87-2.49.32a1.45 1.45 0 0 1-.19-1c0-.81-.1-2.21-.18-4.08-.43-9.24-1.31-28.46-.92-44.41-.31-7.72-.38-14.09-.2-20.06a1 1 0 0 0-.34-.79 1 1 0 0 0-.81-.28c-3.38.35-6.14.74-8.67 1.22l-.84.16a49.18 49.18 0 0 1-8.95 1.08c-2.39 0-4.06-.41-5-1.19a5.19 5.19 0 0 1-1.93-4.77 5.12 5.12 0 0 1 3.12-3.92l.16-.1A38.88 38.88 0 0 1 17.29 9a3.35 3.35 0 0 0 .36.06h.47c1.61 0 3.22.08 4.86.16 2.36.11 4.76.22 7.15.12 9.94-.42 19.78-.7 28.23-.91a2 2 0 0 1 1.72.64 2.88 2.88 0 0 1-.26 2.58zm.17-5c1.06-.53 2.1-1.12 3.15-1.67a6.8 6.8 0 0 1 .5.57 10.38 10.38 0 0 0-2.28 1.9A3.7 3.7 0 0 0 60 6.64zM63.74 12a9.89 9.89 0 0 1-2.3 2.16 5.21 5.21 0 0 0 .38-1.88 6 6 0 0 0 .49-1.89c.28-.19.55-.38.82-.6.55-.45 1.14-.87 1.71-1.29a5.23 5.23 0 0 1-1.1 3.5z"
                                              fill="#73c805"></path>
                                    </svg>
                                </svg> <!---->
                            </g>
                        </g>
                    </g>
                </g>
            </g>
        </g> <!---->
    </g>
</svg>