<svg version="1.0" xmlns="http://www.w3.org/2000/svg" width="100%" height="100%" viewBox="0 0 70 70"
     preserveAspectRatio="xMidYMid meet" color-interpolation-filters="sRGB" style="margin: auto;">
    <g  fill="#ef9a0d" class="iconlettersvg-g iconlettersvg" transform="translate(0,10)">
        <g>
            <g class="tp-name">
                <g transform="scale(1)">
                    <g transform="translate(2.5, 0)">
                        <g class="name-imagesvg">
                            <g>
                                <svg x="0" y="0" width="30" height="50" filtersec="colorsb2649635871" class="image-svg-svg primary" style="overflow: visible;">
                                    <svg xmlns="http://www.w3.org/2000/svg" viewBox="0 0 57.54 97.4">
                                        <path d="M 47.57 46.3 c -3.84 -3 -8.1 -5.33 -12.27 -7.85 c -2.32 -1.4 -4.57 -2.9 -6.82 -4.4 a 17.1 17.1 0 0 1 -4.75 -4.29 c -2.5 -4.07 -2.42 -8 0.18 -11.87 c 4.4 0.55 8.48 3.59 9.1 7.05 a 1.92 1.92 0 0 0 2 1.62 a 3.09 3.09 0 0 0 0.6 -0.08 c 3.36 1.15 7.59 -5.32 8.87 -7.14 c 0.14 -0.21 0.26 -0.41 0.39 -0.62 a 26.66 26.66 0 0 1 -5.24 3.79 a 10 10 0 0 0 0.84 -2.12 c 0.93 -0.86 1.86 -1.72 2.85 -2.5 s 2 -1.38 2.93 -2.11 a 11.73 11.73 0 0 1 -1.38 2.94 a 6.77 6.77 0 0 0 1.91 -3.34 c 0.07 -0.06 0.15 -0.1 0.21 -0.16 s 0.38 -0.6 0 -0.65 h -0.07 a 5.32 5.32 0 0 0 -0.26 -1.89 a 9.1 9.1 0 0 1 -0.14 1.93 a 6.41 6.41 0 0 0 -2.91 1.76 c -1 0.83 -1.93 1.7 -2.84 2.6 a 9.8 9.8 0 0 0 0 -2.23 c 1.88 -1.5 3.74 -3 5.76 -4.34 c 0 0.09 0.09 0.19 0.12 0.28 a 2.25 2.25 0 0 0 -0.06 -0.36 c 0.16 -0.16 0.13 -0.43 -0.07 -0.47 c -0.55 -3.46 -3.27 -6.41 -7 -8.64 C 25.5 -5 10.71 3.71 4.17 16.42 c -5.79 8.52 -5.59 18.89 0.84 27.8 c 3.7 5.14 9.84 8.87 15.27 12.16 c 1.72 1 3.4 2.06 4.81 3 l 6.09 5.57 a 11.78 11.78 0 0 1 2.76 6 c -3.17 5.05 -10.55 6.66 -14.79 2.44 a 11.58 11.58 0 0 0 -3.73 -2.87 a 9.27 9.27 0 0 0 -7.42 0.36 c -1.63 1 -6.05 4.5 -5.68 7.12 a 11.75 11.75 0 0 0 0.1 10.3 a 16.8 16.8 0 0 0 11.72 8.5 a 29.68 29.68 0 0 0 5.9 0.6 a 28.91 28.91 0 0 0 12.16 -2.76 c 13.48 -2.35 25.71 -14 25.33 -28.17 c -0.18 -7.01 -4.45 -15.81 -9.96 -20.17 z M 56 68.37 a 33.51 33.51 0 0 0 -7.15 6.4 c 0.12 -0.73 0.25 -1.46 0.3 -2.2 c 0.48 -0.48 0.92 -1 1.22 -1.32 c 0.65 -0.67 1.27 -1.35 1.91 -2 a 39.89 39.89 0 0 0 3.47 -3.41 c 0.14 0.82 0.25 1.67 0.25 2.53 z m -0.35 -3.06 h -0.07 c -1.72 0.87 -3.16 2.66 -4.42 4.1 l -1.59 1.79 l -0.37 0.45 V 69.2 c 1 -0.89 1.95 -1.8 2.94 -2.68 s 2.21 -1.75 3.3 -2.63 c 0.06 0.46 0.14 0.94 0.22 1.42 z M 55.19 63 c -2.34 1.18 -4.35 3.47 -6.07 5.48 c -0.07 -0.76 -0.17 -1.52 -0.3 -2.29 c 2 -1.69 3.71 -3.78 5.79 -5.46 c 0.24 0.76 0.39 1.54 0.58 2.27 z m -0.88 -3.09 c -2.26 1.42 -3.74 3.86 -5.61 5.76 c -0.12 -0.6 -0.23 -1.19 -0.38 -1.79 c 1.88 -1.7 3.67 -3.48 5.55 -5.2 c 0.13 0.43 0.29 0.85 0.44 1.26 z m -0.69 -1.74 a 31.13 31.13 0 0 0 -5.38 5.44 a 29.71 29.71 0 0 0 -1.07 -3.18 a 42.33 42.33 0 0 1 5.25 -4.77 c 0.45 0.84 0.83 1.69 1.2 2.54 z M 52.05 55 A 21.42 21.42 0 0 0 47 59.94 c -0.31 -0.72 -0.59 -1.46 -1 -2.18 c 1.53 -1.6 3.58 -2.7 5.25 -4.16 c 0.3 0.46 0.53 0.95 0.8 1.4 z m -2.7 -4 c 0.55 0.68 1.07 1.38 1.55 2.09 c -1.31 0.92 -2.63 1.83 -3.87 2.84 a 13.86 13.86 0 0 0 -1.4 1.22 c -0.36 -0.67 -0.68 -1.35 -1.09 -2 c 1.56 -1.43 3.16 -2.79 4.8 -4.14 z m -0.5 -0.59 a 27 27 0 0 0 -4.66 4.16 a 16.44 16.44 0 0 0 -1.08 -1.41 c 1.74 -1.09 3.34 -2.42 5 -3.65 c 0.24 0.24 0.48 0.55 0.74 0.85 z M 47.58 49 a 46.46 46.46 0 0 0 -4.78 3.76 q -0.8 -0.92 -1.65 -1.76 c 1.6 -1.24 3.15 -2.5 4.85 -3.62 c 0.55 0.51 1.06 1.04 1.58 1.62 z m -3 -2.8 c 0.28 0.22 0.53 0.47 0.79 0.71 a 21.74 21.74 0 0 0 -4.68 3.74 c -0.33 -0.31 -0.64 -0.64 -1 -0.94 a 17 17 0 0 1 4.69 -3.3 a 0.39 0.39 0 0 0 0.24 -0.25 z m -0.45 -0.33 a 9.75 9.75 0 0 0 -4.82 3.52 c -0.55 -0.46 -1.12 -0.91 -1.7 -1.34 c 1.53 -1.19 3 -2.42 4.46 -3.72 c 0.76 0.44 1.43 0.97 2.1 1.5 z m -4 -2.78 l 0.71 0.42 c 0.22 0.14 0.42 0.3 0.63 0.43 a 37.18 37.18 0 0 0 -4.4 3.74 c -0.34 -0.24 -0.66 -0.5 -1 -0.73 a 46.56 46.56 0 0 0 4 -3.4 a 0.32 0.32 0 0 0 0.13 -0.5 z m -3 -1.78 L 40.09 43 a 0.26 0.26 0 0 0 -0.2 0 c -1.59 1 -2.81 2.44 -4.31 3.51 c -0.88 -0.6 -1.78 -1.18 -2.66 -1.73 c 1.43 -1.13 2.75 -2.43 4.23 -3.5 c 0.02 0.02 0.02 0 0.04 -0.01 z M 32 38 c 1.59 1.06 3.2 2 4.72 3 a 22.14 22.14 0 0 0 -4.37 3.48 l -1.52 -0.92 a 29 29 0 0 1 3.67 -2.75 c 0.28 -0.16 0.36 -0.73 -0.08 -0.58 c -1.66 0.57 -2.82 1.86 -4.07 3 c -0.84 -0.51 -1.65 -1 -2.44 -1.51 c 1.27 -1.15 2.64 -2.18 3.93 -3.33 A 0.41 0.41 0 0 0 32 38 z m -4.5 -3.31 a 51.69 51.69 0 0 0 4.17 3.09 a 0.46 0.46 0 0 0 -0.24 0.08 a 20.47 20.47 0 0 0 -4.09 3.51 c -0.49 -0.33 -1 -0.69 -1.44 -1 c 1.12 -0.91 2.25 -1.82 3.34 -2.77 c 0.39 -0.34 0 -0.82 -0.38 -0.48 c -1.14 1 -2.24 2 -3.35 3 c -0.64 -0.46 -1.3 -0.9 -1.93 -1.37 c 1.3 -1.15 2.44 -2.47 3.72 -3.65 a 0.64 0.64 0 0 0 0.19 -0.39 z m -0.4 -0.34 a 0.48 0.48 0 0 0 -0.27 0.09 a 30.64 30.64 0 0 0 -3.75 3.89 c -0.35 -0.27 -0.73 -0.5 -1.07 -0.77 c 1.32 -1.27 2.61 -2.59 3.91 -3.87 a 0.25 0.25 0 0 0 0 -0.34 c 0.39 0.36 0.78 0.65 1.17 1.02 z m -1.18 -1 a 0.28 0.28 0 0 0 -0.34 0 a 15.13 15.13 0 0 0 -4 3.94 c -0.38 -0.31 -0.8 -0.6 -1.16 -0.91 c 1.3 -1.19 2.58 -2.38 3.83 -3.58 c 0.37 -0.34 0.05 -0.72 -0.35 -0.45 A 18.29 18.29 0 0 0 20.08 36 A 23.74 23.74 0 0 1 18 34 a 28 28 0 0 1 4.58 -4.52 a 20.48 20.48 0 0 0 3.33 3.86 z m -3.67 -4.5 c -2 0.79 -3.31 2.92 -4.6 4.66 a 17.37 17.37 0 0 1 -1.41 -2 a 45.16 45.16 0 0 1 5 -5.07 a 10.7 10.7 0 0 0 1 2.4 z m -1.06 -6.93 a 0.41 0.41 0 0 0 -0.26 0.11 a 48.26 48.26 0 0 0 -5.3 5 c -0.41 0.46 0.26 0.75 0.61 0.36 c 1.51 -1.66 3.19 -3.15 4.81 -4.7 a 8.21 8.21 0 0 0 0 3.24 h -0.07 a 20 20 0 0 0 -5 5.21 A 10.16 10.16 0 0 1 14.63 26 a 0.29 0.29 0 0 0 0.12 -0.07 a 55.75 55.75 0 0 1 6.71 -5.87 c 0.22 -0.18 0.2 -0.65 -0.17 -0.51 c -2.67 1 -4.88 3.44 -6.62 5.69 a 9.39 9.39 0 0 1 1 -3.54 c 0.56 -0.45 1.16 -0.84 1.58 -1.14 c 1.06 -0.78 2.2 -1.47 3.23 -2.29 a 0.36 0.36 0 0 0 0.15 -0.34 a 10.33 10.33 0 0 1 1.89 -0.18 c 0.3 0 0.6 0 0.89 0.07 a 11.69 11.69 0 0 0 -2.23 4.09 z m 21 -14.79 c 0.32 0.27 0.66 0.53 1 0.83 a 12.83 12.83 0 0 1 3.07 3.94 c -2.2 0.8 -3.93 2.54 -5.65 4.15 a 8.58 8.58 0 0 0 -0.59 -1.7 C 41.49 13 43.2 12 44.77 10.79 c 0.17 -0.13 0.25 -0.54 -0.09 -0.5 c -1.86 0.19 -3.67 2 -4.92 3.48 a 12.91 12.91 0 0 0 -2.18 -2.95 C 39 9.75 40.41 8.6 41.94 7.65 a 0.61 0.61 0 0 0 0.29 -0.53 z m -2.53 -1.9 a 24.34 24.34 0 0 1 2.28 1.64 a 0.33 0.33 0 0 0 -0.23 0 a 26.25 26.25 0 0 0 -4.54 3.47 a 15.83 15.83 0 0 0 -2 -1.61 a 39.16 39.16 0 0 1 4.49 -3.5 z m -1.26 -0.79 c 0.21 0.12 0.41 0.27 0.62 0.39 a 17.71 17.71 0 0 0 -4.42 3.54 A 24.21 24.21 0 0 0 32.13 7 A 46.69 46.69 0 0 1 37 3.78 c 0.44 0.22 0.92 0.41 1.4 0.66 z m -2.23 -1 a 17.46 17.46 0 0 0 -4.51 3.3 l -0.35 -0.17 a 21.77 21.77 0 0 0 -3.23 -1.12 c 1.49 -1.09 3 -2.18 4.51 -3.25 a 24.92 24.92 0 0 1 3.58 1.21 z M 30 1.69 c 0.43 0 0.85 0.13 1.27 0.2 a 17.53 17.53 0 0 0 -4.07 3.37 c -0.69 -0.15 -1.39 -0.3 -2.07 -0.38 c 0.23 -0.17 0.49 -0.32 0.71 -0.5 A 46 46 0 0 1 30 1.69 z m -1.88 -0.08 A 25.13 25.13 0 0 0 24 4.79 a 17.18 17.18 0 0 0 -2 0 c 1.52 -1.07 3.08 -2.11 4.62 -3.2 c 0.48 -0.03 0.97 0.02 1.47 0.02 z m -6.24 1 c 0.51 -0.16 1 -0.37 1.5 -0.51 s 1 -0.2 1.47 -0.29 a 24.7 24.7 0 0 0 -4.21 3.08 a 17.68 17.68 0 0 0 -3.14 0.75 c 0.46 -0.45 0.88 -0.85 1 -0.9 a 20.8 20.8 0 0 1 3.35 -2.13 z M 18 4.05 l -0.5 0.39 a 9.46 9.46 0 0 0 -1.75 1.89 a 25.38 25.38 0 0 0 -7 4.83 A 26 26 0 0 1 18 4.05 z m 7.49 73.05 a 9.84 9.84 0 0 0 -1.55 2 c -0.19 0.36 0.29 0.4 0.48 0.19 c 0.79 -0.88 1.69 -1.64 2.54 -2.44 a 15.19 15.19 0 0 0 1.74 -0.42 a 11.18 11.18 0 0 0 -1.6 2.24 a 9.21 9.21 0 0 1 -1.87 0.72 a 16.25 16.25 0 0 1 -3.78 0.42 c -0.64 0 -1.27 -0.07 -1.89 -0.13 a 21 21 0 0 1 2.54 -2.63 a 16.72 16.72 0 0 0 3.39 0.05 z m -6 -0.84 a 5.65 5.65 0 0 0 1.41 0.6 a 13.32 13.32 0 0 0 -2.25 2.75 a 19 19 0 0 1 -2.1 -0.43 a 14.27 14.27 0 0 1 2.95 -2.92 z m -0.76 -0.61 l 0.1 0.09 A 8.86 8.86 0 0 0 16.06 79 a 12 12 0 0 1 -2 -0.78 l -0.06 -0.04 a 15.84 15.84 0 0 1 3.47 -3.74 z m -1.93 -1.89 a 10.76 10.76 0 0 0 -3.23 3.79 c -0.35 -0.48 -0.7 -1 -1.07 -1.47 l -0.5 -0.68 a 3.76 3.76 0 0 0 -0.29 -0.28 c 1.11 -0.91 2.2 -1.86 3.33 -2.74 a 10 10 0 0 1 1.77 1.38 z m -4.17 -2.21 a 5.54 5.54 0 0 1 1.79 0.45 a 14 14 0 0 0 -3.27 2.57 a 3.82 3.82 0 0 0 -1.56 -0.74 c 0.83 -0.63 2.14 -1.6 3.05 -2.28 z m -1.53 0 c -0.5 0.39 -1 0.8 -1.42 1.22 a 7.26 7.26 0 0 0 -0.89 0.93 h -0.05 a 6.77 6.77 0 0 0 -3.3 1 a 19.6 19.6 0 0 1 5.67 -3.1 z M 26.83 94 z m 10.24 -2.22 A 36.33 36.33 0 0 0 42 87.55 c 1 -0.65 2 -1.2 3 -1.85 c 2.27 -1.57 4.78 -2.76 7 -4.4 c -3.62 4.8 -9.11 8.4 -14.93 10.52 z m 15.21 -11 c 0 -0.24 -0.18 -0.43 -0.5 -0.26 a 84.38 84.38 0 0 0 -7.27 4.57 l -0.63 0.41 c 0.17 -0.2 0.37 -0.37 0.54 -0.58 a 17.3 17.3 0 0 0 1 -1.42 c 0.84 -0.63 1.64 -1.32 2.45 -1.88 c 2.21 -1.51 4.46 -3 6.61 -4.65 a 21.91 21.91 0 0 1 -2.2 3.86 z m 2.72 -5 c -2.06 0.7 -3.82 2.39 -5.53 3.68 c -1 0.74 -2 1.49 -2.94 2.23 c 0.25 -0.46 0.53 -0.92 0.74 -1.41 q 1.66 -1.61 3.35 -3.19 c 1.72 -1.62 3.88 -3 5.26 -4.89 a 0.24 0.24 0 0 0 0 -0.09 a 17.76 17.76 0 0 1 -0.88 3.7 z m 0.94 -3.78 c -0.06 -0.14 -0.23 -0.19 -0.43 -0.06 a 46.38 46.38 0 0 0 -7.71 7 a 22 22 0 0 0 0.91 -3.1 c 2.36 -2.4 5 -4.4 7.38 -6.8 a 19.69 19.69 0 0 1 -0.15 2.96 z"
                                              fill="#f89700"></path>
                                    </svg>
                                </svg> <!---->
                            </g>
                        </g>
                    </g>
                    <g transform="translate(30, 0)">
                        <g class="name-imagesvg">
                            <g>
                                <svg x="0" y="0" width="40" height="50" filtersec="colorsb6138306302" class="image-svg-svg primary" style="overflow: visible;">
                                    <svg xmlns="http://www.w3.org/2000/svg" viewBox="0 0 67.14 91.22">
                                        <path d="M 66.75 6.74 C 63.27 -1 53.47 0.15 46.33 0.18 h -4.1 c 0 -0.06 -0.07 -0.1 -0.2 -0.08 s -0.21 0.06 -0.32 0.08 h -3.65 a 0.22 0.22 0 0 0 -0.28 -0.18 a 1.72 1.72 0 0 0 -0.21 0.07 A 137.29 137.29 0 0 0 20.81 1 a 0.25 0.25 0 0 0 -0.21 0 h -0.13 C 10.47 2.31 1.41 5.37 0.82 12.37 a 7.21 7.21 0 0 0 -0.74 2.15 a 7.24 7.24 0 0 0 2.65 6.68 c 1.32 1.13 3.4 1.69 6.34 1.69 a 51.26 51.26 0 0 0 9.32 -1.17 l 0.83 -0.16 c 2.17 -0.41 4.52 -0.75 7.31 -1.06 c -0.14 5.67 -0.06 11.75 0.23 18.94 c -0.38 16 0.5 35.23 0.92 44.49 c 0.09 1.85 0.15 3.25 0.18 3.95 a 3.19 3.19 0 0 0 0.76 2.48 a 2.94 2.94 0 0 0 2.2 0.86 a 5.69 5.69 0 0 0 1.86 -0.39 c 9.9 0.62 14.38 -7.58 13.19 -17.09 a 226.61 226.61 0 0 1 -1.54 -26.81 c 0 -0.72 0 -1.45 -0.08 -2.18 l 0.22 -0.19 c 0.16 -0.17 0.05 -0.42 -0.2 -0.36 q -0.12 -3.12 -0.34 -6.31 a 0.2 0.2 0 0 0 0 -0.07 c -0.19 -2.64 -0.39 -5.31 -0.52 -8 l 0.19 -0.15 a 0.23 0.23 0 0 0 -0.2 -0.4 c -0.07 -1.39 -0.13 -2.78 -0.14 -4.15 c 0.12 -0.11 0.24 -0.21 0.35 -0.33 s 0.39 0.21 -0.22 -0.4 h -0.12 c 0 -1.55 0.05 -3.09 0.2 -4.61 c 5 0 10.71 -0.31 15.25 -2.59 a 5.77 5.77 0 0 0 1.55 -1.14 C 64 14 68.5 10.63 66.75 6.74 z m -2.06 0.73 a 10.16 10.16 0 0 0 -2.38 2 A 3.57 3.57 0 0 0 61.85 8 l 0.55 -0.41 a 11.09 11.09 0 0 1 1.85 -1.19 a 5.87 5.87 0 0 1 0.44 1.07 z m -2.16 -3 a 15.81 15.81 0 0 0 -3.25 2 a 6.92 6.92 0 0 0 -1.09 -0.11 h -1.31 l 1.35 -0.94 c 1 -0.67 2 -1.26 3 -1.91 a 8.85 8.85 0 0 1 1.3 0.92 z m -4.31 -2 a 11.07 11.07 0 0 1 2.22 0.72 a 28.27 28.27 0 0 0 -4.64 3.23 l -3.33 0.09 c 1.93 -1.14 3.69 -2.62 5.58 -3.83 a 0.42 0.42 0 0 0 0.17 -0.27 z m -0.55 -0.1 c -2.21 1.17 -4 3 -6.17 4.23 l -3.8 0.11 c 2.5 -1.41 4.6 -3.4 7.13 -4.71 c 0.95 0.07 1.9 0.17 2.84 0.31 z M 52 1.82 c 0.38 0 0.76 0.05 1.14 0.07 C 51 3.31 49 5.41 46.72 6.68 l -3 0.1 c 2.86 -1.54 5.4 -3.56 8.28 -4.96 z m -3.9 -0.09 h 2 c -2.57 1.3 -4.76 3.51 -7.2 5 l -2.33 0.07 c 2.66 -1.36 4.9 -3.75 7.51 -5.1 c 0.03 0.07 0.04 0.04 0.06 0.03 z m -1.67 0 C 43.9 3 42 5.55 39.41 6.92 L 36.13 7 a 74.53 74.53 0 0 1 8.17 -5.2 c 0.7 -0.03 1.44 -0.04 2.17 -0.05 z m -6.9 0.27 h 1 l 1.81 -0.07 a 75 75 0 0 0 -6.94 5.13 l -4 0.16 c 1.33 -0.81 2.6 -1.68 3.88 -2.62 A 37.32 37.32 0 0 1 39.53 2 z m -2.05 0 C 35.16 3.56 33 5.69 30.93 7.24 h -3.68 c 2.91 -1.51 5.56 -3.5 8.32 -5.28 z m -3.83 0 c -2.47 1.67 -4.71 3.82 -7.27 5.25 l -2.78 -0.08 A 43.61 43.61 0 0 0 32 2 z m -3.33 0 c -0.83 0.54 -1.63 1.13 -2.43 1.7 c -1.13 0.8 -2.27 1.59 -3.45 2.31 c -0.41 0.24 -0.82 0.47 -1.24 0.68 a 5.57 5.57 0 0 0 -0.5 0.39 h -0.11 c 0.12 -0.17 -0.08 -0.33 -0.23 -0.19 l -0.19 0.17 c -1 0 -2.05 -0.08 -3.05 -0.09 q 1.74 -1.12 3.45 -2.31 c 1.33 -0.88 2.72 -1.66 4.11 -2.5 c 1.23 -0.04 2.45 -0.08 3.64 -0.1 z m -5.69 0.21 A 78.94 78.94 0 0 0 18.3 7 h -0.63 a 1 1 0 0 0 -0.35 0 h -0.95 c 1 -0.71 1.95 -1.44 2.93 -2.17 a 28.83 28.83 0 0 1 3.94 -2.45 z m -3.47 0.26 l -0.62 0.41 c -1.17 0.8 -2.24 1.74 -3.34 2.62 l -1.63 1.3 l -0.22 0.2 c -1 0.06 -2 0.15 -2.91 0.25 a 25 25 0 0 0 2.5 -1.59 c 1.35 -1 2.73 -1.95 4.1 -2.93 c 0.7 -0.07 1.41 -0.13 2.12 -0.2 z m -4.46 0.59 a 45.72 45.72 0 0 1 -5.86 4.37 l -1 0.13 c 2 -1.32 3.86 -2.91 5.76 -4.32 c 0.4 -0.01 0.74 -0.05 1.1 -0.12 z m -2.57 0.5 c -2 1.34 -3.77 2.92 -5.74 4.26 c -0.89 0.19 -1.74 0.4 -2.54 0.65 c 2 -1.53 4 -2.92 6.08 -4.34 c 0.7 -0.13 1.44 -0.34 2.2 -0.51 z M 9 5.26 a 29.2 29.2 0 0 0 -4.43 3.66 a 0.71 0.71 0 0 0 -0.24 0.13 A 7.67 7.67 0 0 0 3 9.82 a 13 13 0 0 1 6 -4.56 z m 33.42 80.53 a 7.6 7.6 0 0 1 -3.52 2.69 a 6.22 6.22 0 0 0 0.76 -0.78 a 4.83 4.83 0 0 0 0.37 -0.62 c 1.41 -1.71 2.76 -3.47 4.17 -5.19 a 11.16 11.16 0 0 1 -1.78 3.9 z m -2 -22.36 c 0 -0.58 0 -1.16 -0.05 -1.75 c 0.83 -1.15 1.63 -2.31 2.47 -3.45 c 0 0.61 0.07 1.21 0.09 1.82 a 20 20 0 0 0 -2.48 3.38 z M 43 61.17 c 0 0.57 0.07 1.14 0.1 1.71 c -1 1.12 -1.69 2.42 -2.56 3.62 c 0 -0.37 -0.05 -0.73 -0.06 -1.06 s 0 -0.73 0 -1.1 A 29.62 29.62 0 0 0 43 61.17 z m -2.64 -0.32 c 0 -1.46 -0.07 -2.91 -0.11 -4.37 a 37.43 37.43 0 0 1 2.53 -3.09 c 0 1.35 0 2.68 0.06 4 a 18.35 18.35 0 0 0 -2.46 3.46 z m -0.14 -5.29 c 0 -0.78 0 -1.57 -0.06 -2.34 c 0.82 -1 1.61 -2.07 2.49 -3.06 a 0.3 0.3 0 0 0 0.09 -0.23 v 2.49 a 11.28 11.28 0 0 0 -2.5 3.14 z m 2 -5.77 a 17.61 17.61 0 0 0 -2.08 2.52 c 0 -1 0 -2.07 -0.08 -3.1 a 23.55 23.55 0 0 1 1.64 -2.12 a 8.23 8.23 0 0 1 1 -1 v 3.79 c 0.05 -0.17 -0.24 -0.29 -0.46 -0.09 z m -0.81 -3.38 A 14.79 14.79 0 0 0 40 48.25 c 0 -1 0 -1.93 -0.08 -2.88 a 12.56 12.56 0 0 1 2.73 -2.86 v 2.57 c -0.4 0.42 -0.83 0.92 -1.22 1.33 z m -1.51 -2 V 42.59 a 37.91 37.91 0 0 1 2.78 -3.3 v 2.46 a 8.34 8.34 0 0 0 -2.76 2.68 z m 2.7 -24.34 a 0.24 0.24 0 0 0 -0.2 -0.05 c -1.26 0.3 -2 1.67 -2.89 2.57 c -0.09 -0.94 -0.2 -1.87 -0.38 -2.79 h 3.51 a 2.23 2.23 0 0 0 -0.02 0.29 z m -2.25 2.45 a 10.49 10.49 0 0 0 2.14 -2 c -0.11 0.56 -0.13 1.13 -0.2 1.68 a 13.19 13.19 0 0 0 -2.05 1.8 l -0.62 0.6 v -1.39 c 0.24 -0.21 0.51 -0.48 0.75 -0.67 z m -0.71 6 a 12.13 12.13 0 0 0 1 -0.92 c 0.49 -0.51 1 -1 1.54 -1.46 c 0 1.17 0.13 2.36 0.21 3.55 a 10.94 10.94 0 0 0 -1.87 1.59 c -0.25 0.25 -0.56 0.54 -0.86 0.85 v -1.49 c 0.02 -0.64 0 -1.37 0 -2.08 z m 0 -0.82 v -2.24 c 0.45 -0.42 0.92 -0.82 1.4 -1.21 s 0.76 -0.56 1.12 -0.88 v 1.64 a 16.15 16.15 0 0 0 -2.5 2.73 z m 0 5.38 c 0.43 -0.47 0.86 -0.93 1.35 -1.37 S 42 31 42.44 30.63 c 0 0.64 0.09 1.29 0.11 1.93 a 9.43 9.43 0 0 0 -2.9 2.78 c -0.01 -0.73 0 -1.48 0.01 -2.22 z m 1 2.26 a 24.67 24.67 0 0 1 1.94 -1.89 v 1.85 a 10.56 10.56 0 0 0 -2.83 3 l -0.07 -1.8 c 0.32 -0.36 0.64 -0.74 0.96 -1.12 z m 2 0.68 v 2.34 a 16.22 16.22 0 0 0 -2.81 3.2 l -0.08 -2.55 c 0.98 -0.93 1.91 -1.96 2.87 -2.95 z M 44.39 81 a 26 26 0 0 0 -3.33 3.92 a 13.46 13.46 0 0 0 0.46 -1.6 c 0.41 -0.51 0.81 -1 1.19 -1.59 c 0.62 -0.93 1.32 -1.86 1.89 -2.84 a 13.59 13.59 0 0 1 -0.21 2.11 z m -0.06 -6.2 c 0.13 1 0.23 2 0.26 3 a 23.55 23.55 0 0 0 -2.91 4.13 a 24 24 0 0 0 0.12 -3.52 a 20.94 20.94 0 0 0 2.53 -3.65 z m -0.4 -2.86 c 0.08 0.53 0.15 1.07 0.23 1.61 c -0.9 1.32 -1.56 2.77 -2.39 4.13 c -0.06 -0.93 -0.14 -1.86 -0.24 -2.8 a 37.94 37.94 0 0 0 2.4 -2.98 z m -0.12 -1 a 16.58 16.58 0 0 0 -2.36 3.22 c -0.07 -0.61 -0.14 -1.22 -0.22 -1.82 c 0.78 -1 1.61 -2 2.4 -3 z m -0.26 -2.33 a 16.78 16.78 0 0 0 -2.41 3 l -0.06 -0.46 c -0.19 -1.41 -0.37 -2.76 -0.47 -4 a 37.1 37.1 0 0 0 2.57 -3.28 c 0.1 1.54 0.22 3.13 0.37 4.66 z z M 60 7 C 61.05 6.12 62.09 5.53 63.14 4.98 A 6.8 6.8 0 0 1 63.64 5.55 A 10.38 10.38 0 0 0 61.36 7.45 A 3.7 3.7 0 0 0 60 6.64 z M 63.74 12 a 9.89 9.89 0 0 1 -2.3 2.16 a 5.21 5.21 0 0 0 0.38 -1.88 a 6 6 0 0 0 0.49 -1.89 c 0.28 -0.19 0.55 -0.38 0.82 -0.6 c 0.55 -0.45 1.14 -0.87 1.71 -1.29 a 5.23 5.23 0 0 1 -1.1 3.5 z"
                                              fill="#73c805"></path>
                                    </svg>
                                </svg> <!---->
                            </g>
                        </g>
                    </g>
                </g>
            </g>
        </g> <!---->
    </g>
</svg>